<?xml version="1.0" encoding="UTF-8" standalone="no"?>
<!-- Created with Inkscape (http://www.inkscape.org/) -->

<svg
   xmlns:dc="http://purl.org/dc/elements/1.1/"
   xmlns:cc="http://creativecommons.org/ns#"
   xmlns:rdf="http://www.w3.org/1999/02/22-rdf-syntax-ns#"
   xmlns:svg="http://www.w3.org/2000/svg"
   xmlns="http://www.w3.org/2000/svg"
   xmlns:sodipodi="http://sodipodi.sourceforge.net/DTD/sodipodi-0.dtd"
   xmlns:inkscape="http://www.inkscape.org/namespaces/inkscape"
   width="120mm"
   height="120mm"
   viewBox="0 0 425.19684 425.19683"
   id="svg2"
   version="1.1"
   inkscape:version="0.91 r13725"
   sodipodi:docname="coffee-mug.svg"
   inkscape:export-filename="C:\y12\plan2014-15\svg\coffee\coffee-mug.png"
   inkscape:export-xdpi="90"
   inkscape:export-ydpi="90">
   <sodipodi:namedview
      id="base"
      pagecolor="#000000"
      bordercolor="#666666"
      borderopacity="1.0"
      inkscape:pageopacity="0.0"
      inkscape:pageshadow="2"
      inkscape:zoom="1.1987955"
      inkscape:cx="-22.725437"
      inkscape:cy="146.66515"
      inkscape:document-units="px"
      inkscape:current-layer="layer1"
      showgrid="false"
      inkscape:window-width="1671"
      inkscape:window-height="886"
      inkscape:window-x="25"
      inkscape:window-y="25"
      inkscape:window-maximized="0"
      fit-margin-top="0"
      fit-margin-left="0"
      fit-margin-right="0"
      fit-margin-bottom="0" />
   <defs
      id="defs4" />
   <metadata
      id="metadata7">
      <rdf:RDF>
         <cc:Work
            rdf:about="">
            <dc:format>image/svg+xml</dc:format>
            <dc:type
               rdf:resource="http://purl.org/dc/dcmitype/StillImage" />
            <dc:title></dc:title>
         </cc:Work>
      </rdf:RDF>
   </metadata>
   <g
      inkscape:label="Layer 1"
      inkscape:groupmode="layer"
      id="layer1"
      transform="translate(-311.75454,-150.28252)">
      <path
         style="opacity:1;fill:#000000;fill-opacity:1;stroke:none;stroke-width:2.29999995;stroke-miterlimit:4;stroke-dasharray:none;stroke-dashoffset:0;stroke-opacity:1"
         d="m 340.3802,205.98418 c -0.36349,2.02516 -0.39846,4.00958 -0.14621,5.9527 l 0.14621,-5.9527 z m -0.14621,5.9527 -6.79101,279.50694 c 0,100.8549 287.26623,92.46026 287.26623,5.55303 0,-6.93879 0.84678,-297.6455 -1.39068,-289.62522 -22.55766,80.85929 -271.89121,59.97851 -279.08454,4.56525 z m 135.45304,243.42685 a 122.81636,41.632668 0 0 1 122.81656,41.63312 122.81636,41.632668 0 0 1 -122.81656,41.62987 122.81636,41.632668 0 0 1 -122.81656,-41.62987 122.81636,41.632668 0 0 1 122.81656,-41.63312 z"
         id="path4233"
         inkscape:connector-curvature="0" />
      <ellipse
         style="opacity:1;fill:#000000;fill-opacity:1;stroke:none;stroke-width:2.29999995;stroke-miterlimit:4;stroke-dasharray:none;stroke-dashoffset:0;stroke-opacity:1"
         id="path4235"
         cx="481.3562"
         cy="219.44452"
         rx="118.77094"
         ry="33.306133" />
      <path
         style="opacity:1;fill:#000000;fill-opacity:1;stroke:none;stroke-width:2.29999995;stroke-miterlimit:4;stroke-dasharray:none;stroke-dashoffset:0;stroke-opacity:1"
         d="m 627.64655,262.46501 c 0,0 65.48015,-19.48233 80.48983,2.77551 33.12798,49.12541 25.96876,125.52313 -2.77551,180.40821 -11.40684,21.78053 -73.55105,5.55102 -73.55105,5.55102 l 0,-37.4694 45.79595,-1.38776 -1.38777,-119.34697 -46.91069,-3.89026 z"
         id="path4237"
         inkscape:connector-curvature="0"
         sodipodi:nodetypes="csscccccc" />
      <g
         transform="matrix(0.21158883,0,0,0.25938061,362.23517,411.68572)"
         id="layer1-3"
         inkscape:label="Layer 1">
         <path
            sodipodi:nodetypes="ssssssssssscscccccssscccccccccssscccccssccscsccccccc"
            inkscape:connector-curvature="0"
            id="path4241"
            transform="translate(260.86977,109.39471)"
            d="m 140.14648,111.02539 c -7.49763,0.12902 -14.87893,1.59589 -21.34179,4.84766 -17.84423,8.97828 -26.400595,30.13291 -37.539065,46.71484 -14.71297,21.90333 -36.026414,42.95459 -38.371094,69.23633 -1.22673,13.75057 5.569743,27.79816 13.345703,39.20508 5.33426,7.82507 12.773963,15.15778 21.689454,18.35156 18.325609,6.56475 40.851032,7.60509 58.392582,-0.83398 34.71339,-16.70029 64.63411,-51.74628 73.40625,-89.25586 4.74597,-20.29372 -2.65323,-43.53208 -14.18164,-60.89454 -7.59911,-11.4447 -20.21861,-20.20473 -33.36524,-24.1914 -6.92349,-2.09953 -14.53753,-3.30872 -22.03516,-3.17969 z m 16.76954,24.87695 c 0,0 -6.98753,25.85284 -11.67774,38.37305 -0.5948,1.58779 -1.40574,3.85177 -2.13867,5.86328 l 3.18535,1.22855 9.69356,-2.79105 -7.49119,3.9652 -6.66506,1.0973 c -1.70416,4.72925 -3.41715,9.54309 -4.66797,13.17578 -0.32605,0.94693 6.25612,0.72633 5.91992,1.66797 -0.56151,1.57269 -6.35637,0.3984 -6.95899,1.94727 -2.90239,7.45982 -6.39315,14.56444 -11.32812,20.70703 l 1.30664,4.15234 1.81136,4.55438 -3.53988,-2.77212 -2.07031,-3.04593 c -0.56748,0.59047 -1.18255,1.1842 -1.81836,1.77734 l 0.29492,0.21094 -0.41406,-0.10156 c -14.26744,13.22998 -44.355467,26.77539 -44.355467,26.77539 0,0 11.391554,-6.93743 22.621094,-15.52148 1.677753,-1.2825 1.989093,-3.96432 3.621093,-5.30274 1.23017,-1.00889 0.68188,2.8395 1.84766,1.81641 2.63126,-2.30919 6.43288,-6.21258 9.38476,-9.50586 l -5.5676,-7.73035 3.9998,3.40509 2.87054,1.87018 0.52734,0.37891 c 0.6109,-0.72337 1.16661,-1.40061 1.57031,-1.94336 2.01865,-2.71393 3.92327,-6.14937 5.67383,-9.88477 0.82802,-1.76684 -2.43359,-6.00781 -2.43359,-6.00781 -0.48075,-1.84346 4.32031,1.87894 4.32031,1.8789 1.88059,-3.89938 5.288,-14.68276 6.31055,-18.08593 1.00274,-3.33721 -4.6461,-3.20548 -3.57032,-6.51172 0,0 4.24866,4.01945 6.23829,-0.0469 1.6382,-3.34808 4.25833,-8.49373 7.125,-14.07421 l -0.47461,0.28515 -9.20313,1.46875 4.69854,-2.20185 3.59052,-0.73474 2.84375,-1.63372 c 6.99797,-13.5809 14.91993,-28.70313 14.91993,-28.70313 z"
            style="opacity:1;fill:#000000;fill-opacity:1;stroke:none;stroke-width:2.29999995;stroke-miterlimit:4;stroke-dasharray:none;stroke-dashoffset:0;stroke-opacity:1" />
      </g>
      <g
         transform="matrix(0.1202645,0.17408699,-0.2134082,0.14742877,502.45299,402.69037)"
         id="layer1-3-9"
         inkscape:label="Layer 1">
         <path
            sodipodi:nodetypes="ssssssssssscscccccssscccccccccssscccccssccscsccccccc"
            inkscape:connector-curvature="0"
            id="path4241-7"
            transform="translate(260.86977,109.39471)"
            d="m 140.14648,111.02539 c -7.49763,0.12902 -14.87893,1.59589 -21.34179,4.84766 -17.84423,8.97828 -26.400595,30.13291 -37.539065,46.71484 -14.71297,21.90333 -36.026414,42.95459 -38.371094,69.23633 -1.22673,13.75057 5.569743,27.79816 13.345703,39.20508 5.33426,7.82507 12.773963,15.15778 21.689454,18.35156 18.325609,6.56475 40.851032,7.60509 58.392582,-0.83398 34.71339,-16.70029 64.63411,-51.74628 73.40625,-89.25586 4.74597,-20.29372 -2.65323,-43.53208 -14.18164,-60.89454 -7.59911,-11.4447 -20.21861,-20.20473 -33.36524,-24.1914 -6.92349,-2.09953 -14.53753,-3.30872 -22.03516,-3.17969 z m 16.76954,24.87695 c 0,0 -6.98753,25.85284 -11.67774,38.37305 -0.5948,1.58779 -1.40574,3.85177 -2.13867,5.86328 l 3.18535,1.22855 9.69356,-2.79105 -7.49119,3.9652 -6.66506,1.0973 c -1.70416,4.72925 -3.41715,9.54309 -4.66797,13.17578 -0.32605,0.94693 6.25612,0.72633 5.91992,1.66797 -0.56151,1.57269 -6.35637,0.3984 -6.95899,1.94727 -2.90239,7.45982 -6.39315,14.56444 -11.32812,20.70703 l 1.30664,4.15234 1.81136,4.55438 -3.53988,-2.77212 -2.07031,-3.04593 c -0.56748,0.59047 -1.18255,1.1842 -1.81836,1.77734 l 0.29492,0.21094 -0.41406,-0.10156 c -14.26744,13.22998 -44.355467,26.77539 -44.355467,26.77539 0,0 11.391554,-6.93743 22.621094,-15.52148 1.677753,-1.2825 1.989093,-3.96432 3.621093,-5.30274 1.23017,-1.00889 0.68188,2.8395 1.84766,1.81641 2.63126,-2.30919 6.43288,-6.21258 9.38476,-9.50586 l -5.5676,-7.73035 3.9998,3.40509 2.87054,1.87018 0.52734,0.37891 c 0.6109,-0.72337 1.16661,-1.40061 1.57031,-1.94336 2.01865,-2.71393 3.92327,-6.14937 5.67383,-9.88477 0.82802,-1.76684 -2.43359,-6.00781 -2.43359,-6.00781 -0.48075,-1.84346 4.32031,1.87894 4.32031,1.8789 1.88059,-3.89938 5.288,-14.68276 6.31055,-18.08593 1.00274,-3.33721 -4.6461,-3.20548 -3.57032,-6.51172 0,0 4.24866,4.01945 6.23829,-0.0469 1.6382,-3.34808 4.25833,-8.49373 7.125,-14.07421 l -0.47461,0.28515 -9.20313,1.46875 4.69854,-2.20185 3.59052,-0.73474 2.84375,-1.63372 c 6.99797,-13.5809 14.91993,-28.70313 14.91993,-28.70313 z"
            style="opacity:1;fill:#000000;fill-opacity:1;stroke:none;stroke-width:2.29999995;stroke-miterlimit:4;stroke-dasharray:none;stroke-dashoffset:0;stroke-opacity:1" />
      </g>
      <g
         transform="matrix(-0.1202645,0.17408699,0.2134082,0.14742877,487.16664,366.69321)"
         id="layer1-3-9-4"
         inkscape:label="Layer 1">
         <path
            sodipodi:nodetypes="ssssssssssscscccccssscccccccccssscccccssccscsccccccc"
            inkscape:connector-curvature="0"
            id="path4241-7-7"
            transform="translate(260.86977,109.39471)"
            d="m 140.14648,111.02539 c -7.49763,0.12902 -14.87893,1.59589 -21.34179,4.84766 -17.84423,8.97828 -26.400595,30.13291 -37.539065,46.71484 -14.71297,21.90333 -36.026414,42.95459 -38.371094,69.23633 -1.22673,13.75057 5.569743,27.79816 13.345703,39.20508 5.33426,7.82507 12.773963,15.15778 21.689454,18.35156 18.325609,6.56475 40.851032,7.60509 58.392582,-0.83398 34.71339,-16.70029 64.63411,-51.74628 73.40625,-89.25586 4.74597,-20.29372 -2.65323,-43.53208 -14.18164,-60.89454 -7.59911,-11.4447 -20.21861,-20.20473 -33.36524,-24.1914 -6.92349,-2.09953 -14.53753,-3.30872 -22.03516,-3.17969 z m 16.76954,24.87695 c 0,0 -6.98753,25.85284 -11.67774,38.37305 -0.5948,1.58779 -1.40574,3.85177 -2.13867,5.86328 l 3.18535,1.22855 9.69356,-2.79105 -7.49119,3.9652 -6.66506,1.0973 c -1.70416,4.72925 -3.41715,9.54309 -4.66797,13.17578 -0.32605,0.94693 6.25612,0.72633 5.91992,1.66797 -0.56151,1.57269 -6.35637,0.3984 -6.95899,1.94727 -2.90239,7.45982 -6.39315,14.56444 -11.32812,20.70703 l 1.30664,4.15234 1.81136,4.55438 -3.53988,-2.77212 -2.07031,-3.04593 c -0.56748,0.59047 -1.18255,1.1842 -1.81836,1.77734 l 0.29492,0.21094 -0.41406,-0.10156 c -14.26744,13.22998 -44.355467,26.77539 -44.355467,26.77539 0,0 11.391554,-6.93743 22.621094,-15.52148 1.677753,-1.2825 1.989093,-3.96432 3.621093,-5.30274 1.23017,-1.00889 0.68188,2.8395 1.84766,1.81641 2.63126,-2.30919 6.43288,-6.21258 9.38476,-9.50586 l -5.5676,-7.73035 3.9998,3.40509 2.87054,1.87018 0.52734,0.37891 c 0.6109,-0.72337 1.16661,-1.40061 1.57031,-1.94336 2.01865,-2.71393 3.92327,-6.14937 5.67383,-9.88477 0.82802,-1.76684 -2.43359,-6.00781 -2.43359,-6.00781 -0.48075,-1.84346 4.32031,1.87894 4.32031,1.8789 1.88059,-3.89938 5.288,-14.68276 6.31055,-18.08593 1.00274,-3.33721 -4.6461,-3.20548 -3.57032,-6.51172 0,0 4.24866,4.01945 6.23829,-0.0469 1.6382,-3.34808 4.25833,-8.49373 7.125,-14.07421 l -0.47461,0.28515 -9.20313,1.46875 4.69854,-2.20185 3.59052,-0.73474 2.84375,-1.63372 c 6.99797,-13.5809 14.91993,-28.70313 14.91993,-28.70313 z"
            style="opacity:1;fill:#000000;fill-opacity:1;stroke:none;stroke-width:2.29999995;stroke-miterlimit:4;stroke-dasharray:none;stroke-dashoffset:0;stroke-opacity:1" />
      </g>
   </g>
</svg>